<svg width="19" height="15" viewBox="0 0 19 15" fill="none" xmlns="http://www.w3.org/2000/svg">
<path d="M15.9231 1.68442C15.3444 1.41852 14.75 1.18781 14.14 0.992294C13.53 0.796779 12.9044 0.644277 12.2631 0.534788C12.2474 0.534788 12.2357 0.538698 12.2279 0.546518C12.2201 0.554339 12.2083 0.566071 12.1927 0.581712C12.1145 0.722483 12.0363 0.874985 11.9581 1.03922C11.8799 1.20345 11.8095 1.36377 11.7469 1.52019C11.0587 1.4107 10.3705 1.35595 9.68228 1.35595C8.99406 1.35595 8.30585 1.4107 7.61763 1.52019C7.55507 1.36377 7.48468 1.20345 7.40647 1.03922C7.32827 0.874985 7.24224 0.722483 7.14839 0.581712C7.14839 0.566071 7.14448 0.554339 7.13666 0.546518C7.12884 0.538698 7.11711 0.534788 7.10147 0.534788C6.46018 0.644277 5.83062 0.796779 5.21279 0.992294C4.59496 1.18781 4.0045 1.41852 3.44142 1.68442C3.42578 1.68442 3.41796 1.68442 3.41796 1.68442C3.41796 1.68442 3.41796 1.69224 3.41796 1.70788C2.82359 2.58379 2.33871 3.45188 1.96332 4.31215C1.58793 5.17242 1.29466 6.02878 1.0835 6.88123C0.872342 7.73367 0.743301 8.58221 0.696378 9.42684C0.649454 10.2715 0.665095 11.1161 0.743301 11.9607C0.743301 11.9607 0.747212 11.9646 0.755032 11.9725C0.762853 11.9803 0.766763 11.992 0.766763 12.0076C1.53318 12.5707 2.29179 13.0321 3.04257 13.3919C3.79335 13.7516 4.5363 14.0488 5.27144 14.2834C5.28708 14.2834 5.29882 14.2795 5.30664 14.2717C5.31446 14.2639 5.32619 14.26 5.34183 14.26C5.51388 14.0254 5.67421 13.7829 5.8228 13.5327C5.97139 13.2824 6.11607 13.0243 6.25684 12.7584C6.25684 12.7428 6.25684 12.7271 6.25684 12.7115C6.25684 12.6959 6.24902 12.688 6.23338 12.688C5.98312 12.5942 5.74068 12.4886 5.50606 12.3713C5.27144 12.254 5.04465 12.1328 4.82567 12.0076C4.79439 11.992 4.77874 11.9764 4.77874 11.9607C4.77874 11.9451 4.78656 11.9294 4.80221 11.9138C4.84913 11.8825 4.89605 11.8473 4.94298 11.8082C4.9899 11.7691 5.03682 11.7339 5.08375 11.7026C5.09939 11.687 5.11112 11.6792 5.11894 11.6792C5.12676 11.6792 5.13849 11.6792 5.15413 11.6792C5.88927 12.0233 6.64005 12.2814 7.40647 12.4534C8.15725 12.6098 8.91585 12.688 9.68228 12.688C10.4487 12.688 11.2151 12.6098 11.9815 12.4534C12.7323 12.2814 13.4753 12.0233 14.2104 11.6792C14.2104 11.6792 14.2182 11.6792 14.2339 11.6792C14.2495 11.6792 14.2573 11.687 14.2573 11.7026C14.3043 11.7339 14.3512 11.7691 14.3981 11.8082C14.445 11.8473 14.492 11.8825 14.5389 11.9138C14.5545 11.9294 14.5623 11.9451 14.5623 11.9607C14.5623 11.9764 14.5545 11.992 14.5389 12.0076C14.3199 12.1328 14.0931 12.254 13.8585 12.3713C13.6239 12.4886 13.3814 12.5942 13.1312 12.688C13.1155 12.688 13.1038 12.6959 13.096 12.7115C13.0882 12.7271 13.0921 12.7428 13.1077 12.7584C13.2328 13.0243 13.3736 13.2824 13.53 13.5327C13.6864 13.7829 13.8507 14.0254 14.0227 14.26C14.0227 14.26 14.0305 14.2639 14.0462 14.2717C14.0618 14.2795 14.0775 14.2834 14.0931 14.2834C14.8282 14.0488 15.5673 13.7516 16.3103 13.3919C17.0532 13.0321 17.8157 12.5707 18.5978 12.0076C18.5978 11.992 18.6017 11.9803 18.6095 11.9725C18.6173 11.9646 18.6213 11.9607 18.6213 11.9607C18.7151 10.991 18.7229 10.0525 18.6447 9.1453C18.5665 8.2381 18.414 7.35828 18.1872 6.50584C17.9604 5.65339 17.6593 4.82831 17.2839 4.03061C16.9085 3.2329 16.4628 2.45866 15.9466 1.70788C15.9466 1.69224 15.9427 1.68442 15.9349 1.68442C15.927 1.68442 15.9231 1.68442 15.9231 1.68442ZM6.70262 9.91954C6.24902 9.91954 5.86581 9.73966 5.55299 9.37992C5.24016 9.02017 5.08375 8.59003 5.08375 8.08951C5.08375 7.58899 5.24016 7.16277 5.55299 6.81084C5.86581 6.45891 6.24902 6.28295 6.70262 6.28295C7.15621 6.28295 7.53942 6.45891 7.85225 6.81084C8.16507 7.16277 8.32149 7.58899 8.32149 8.08951C8.32149 8.59003 8.16116 9.02017 7.84052 9.37992C7.51987 9.73966 7.14057 9.91954 6.70262 9.91954ZM12.6854 9.91954C12.2318 9.91954 11.8486 9.73966 11.5358 9.37992C11.2229 9.02017 11.0665 8.59003 11.0665 8.08951C11.0665 7.58899 11.2229 7.16277 11.5358 6.81084C11.8486 6.45891 12.2318 6.28295 12.6854 6.28295C13.139 6.28295 13.5222 6.45891 13.835 6.81084C14.1479 7.16277 14.3043 7.58899 14.3043 8.08951C14.3043 8.59003 14.1479 9.02017 13.835 9.37992C13.5222 9.73966 13.139 9.91954 12.6854 9.91954Z" fill="white"/>
</svg>
