<svg width="13" height="13" viewBox="0 0 13 13" fill="none" xmlns="http://www.w3.org/2000/svg">
<path d="M4.56641 1.40234C4.0651 1.55729 3.60026 1.7806 3.17188 2.07227C2.74349 2.37305 2.36751 2.72168 2.04395 3.11816C1.72038 3.51465 1.45833 3.95443 1.25781 4.4375C1.05729 4.92969 0.934245 5.44466 0.888672 5.98242H3.5C3.52734 5.26237 3.59798 4.58333 3.71191 3.94531C3.82585 3.30729 3.97852 2.73763 4.16992 2.23633C4.22461 2.0905 4.28613 1.94694 4.35449 1.80566C4.42285 1.66439 4.49349 1.52995 4.56641 1.40234ZM6.125 1.16992C6.0612 1.16992 5.98372 1.19043 5.89258 1.23145C5.80143 1.27246 5.70117 1.35221 5.5918 1.4707C5.49154 1.58919 5.389 1.73958 5.28418 1.92188C5.17936 2.10417 5.08138 2.3138 4.99023 2.55078C4.81706 2.98828 4.67806 3.50098 4.57324 4.08887C4.46842 4.67676 4.40234 5.30794 4.375 5.98242H7.875C7.84766 5.30794 7.78158 4.67676 7.67676 4.08887C7.57194 3.50098 7.43294 2.98828 7.25977 2.55078C7.16862 2.3138 7.07064 2.10417 6.96582 1.92188C6.861 1.73958 6.75846 1.58919 6.6582 1.4707C6.54883 1.35221 6.44857 1.27246 6.35742 1.23145C6.26628 1.19043 6.1888 1.16992 6.125 1.16992ZM8.75 5.98242H11.3613C11.3158 5.44466 11.1927 4.92969 10.9922 4.4375C10.7917 3.95443 10.5296 3.51465 10.2061 3.11816C9.88249 2.72168 9.50651 2.37305 9.07812 2.07227C8.64974 1.7806 8.1849 1.55729 7.68359 1.40234C7.75651 1.52995 7.82715 1.66439 7.89551 1.80566C7.96387 1.94694 8.02539 2.0905 8.08008 2.23633C8.27148 2.73763 8.42415 3.30729 8.53809 3.94531C8.65202 4.58333 8.72266 5.26237 8.75 5.98242ZM7.875 6.85742H4.375C4.40234 7.5319 4.46842 8.16309 4.57324 8.75098C4.67806 9.33887 4.81706 9.85156 4.99023 10.2891C5.08138 10.526 5.17936 10.7357 5.28418 10.918C5.389 11.1003 5.49154 11.2507 5.5918 11.3691C5.70117 11.4876 5.80143 11.5674 5.89258 11.6084C5.98372 11.6494 6.0612 11.6699 6.125 11.6699C6.1888 11.6699 6.26628 11.6494 6.35742 11.6084C6.44857 11.5674 6.54883 11.4876 6.6582 11.3691C6.75846 11.2507 6.861 11.1003 6.96582 10.918C7.07064 10.7357 7.16862 10.526 7.25977 10.2891C7.43294 9.85156 7.57194 9.33887 7.67676 8.75098C7.78158 8.16309 7.84766 7.5319 7.875 6.85742ZM7.68359 11.4375C8.1849 11.2826 8.64974 11.0592 9.07812 10.7676C9.50651 10.4668 9.88249 10.1182 10.2061 9.72168C10.5296 9.3252 10.7917 8.88542 10.9922 8.40234C11.1927 7.91016 11.3158 7.39518 11.3613 6.85742H8.75C8.72266 7.57747 8.65202 8.25651 8.53809 8.89453C8.42415 9.53255 8.27148 10.1022 8.08008 10.6035C8.02539 10.7493 7.96387 10.8929 7.89551 11.0342C7.82715 11.1755 7.75651 11.3099 7.68359 11.4375ZM6.125 12.5449C5.27734 12.5449 4.48438 12.3854 3.74609 12.0664C2.9987 11.7474 2.34701 11.3099 1.79102 10.7539C1.23503 10.1979 0.797526 9.54622 0.478516 8.79883C0.159505 8.06055 0 7.26758 0 6.41992C0 5.57227 0.159505 4.7793 0.478516 4.04102C0.797526 3.29362 1.23503 2.64193 1.79102 2.08594C2.34701 1.52995 2.9987 1.09245 3.74609 0.773438C4.48438 0.454427 5.27734 0.294922 6.125 0.294922C6.97266 0.294922 7.76562 0.454427 8.50391 0.773438C9.2513 1.09245 9.903 1.52995 10.459 2.08594C11.015 2.64193 11.4525 3.29362 11.7715 4.04102C12.0905 4.7793 12.25 5.57227 12.25 6.41992C12.25 7.26758 12.0905 8.06055 11.7715 8.79883C11.4525 9.54622 11.015 10.1979 10.459 10.7539C9.903 11.3099 9.2513 11.7474 8.50391 12.0664C7.76562 12.3854 6.97266 12.5449 6.125 12.5449ZM4.56641 11.4375C4.49349 11.3099 4.42285 11.1755 4.35449 11.0342C4.28613 10.8929 4.22461 10.7493 4.16992 10.6035C3.97852 10.1022 3.82585 9.53255 3.71191 8.89453C3.59798 8.25651 3.52734 7.57747 3.5 6.85742H0.888672C0.934245 7.39518 1.05729 7.91016 1.25781 8.40234C1.45833 8.88542 1.72038 9.3252 2.04395 9.72168C2.36751 10.1182 2.74349 10.4668 3.17188 10.7676C3.60026 11.0592 4.0651 11.2826 4.56641 11.4375ZM0.875 6.41992V6.43359V6.40625V6.41992Z" fill="#BCCBD6"/>
</svg>
