<svg width="16" height="22" viewBox="0 0 16 22" fill="none" xmlns="http://www.w3.org/2000/svg">
<path d="M7.5078 0.0191746C6.47548 0.0191746 5.4979 0.214689 4.57507 0.605721C3.66787 0.996752 2.87408 1.53246 2.19369 2.21286C1.51329 2.89325 0.977578 3.68705 0.586547 4.59424C0.195516 5.51707 0 6.49465 0 7.52697V13.5332C0 14.5655 0.195516 15.5431 0.586547 16.4659C0.977578 17.3731 1.51329 18.1669 2.19369 18.8473C2.87408 19.5277 3.66787 20.0634 4.57507 20.4545C5.4979 20.8455 6.47548 21.041 7.5078 21.041C8.54012 21.041 9.5177 20.8455 10.4405 20.4545C11.3477 20.0634 12.1415 19.5277 12.8219 18.8473C13.5023 18.1669 14.038 17.3731 14.4291 16.4659C14.8201 15.5431 15.0156 14.5655 15.0156 13.5332V7.52697C15.0156 6.49465 14.8201 5.51707 14.4291 4.59424C14.038 3.68705 13.5023 2.89325 12.8219 2.21286C12.1415 1.53246 11.3477 0.996752 10.4405 0.605721C9.5177 0.214689 8.54012 0.0191746 7.5078 0.0191746ZM1.50156 7.52697C1.50156 6.69799 1.65797 5.91593 1.9708 5.18079C2.28362 4.46129 2.71376 3.82782 3.2612 3.28037C3.80864 2.73293 4.44212 2.3028 5.16161 1.98997C5.89675 1.67715 6.67881 1.52073 7.5078 1.52073C8.33679 1.52073 9.11885 1.67715 9.85399 1.98997C10.5735 2.3028 11.207 2.73293 11.7544 3.28037C12.3018 3.82782 12.732 4.46129 13.0448 5.18079C13.3576 5.91593 13.514 6.69799 13.514 7.52697V13.5332C13.514 14.3622 13.3576 15.1443 13.0448 15.8794C12.732 16.5989 12.3018 17.2324 11.7544 17.7798C11.207 18.3273 10.5735 18.7574 9.85399 19.0702C9.11885 19.383 8.33679 19.5395 7.5078 19.5395C6.67881 19.5395 5.89675 19.383 5.16161 19.0702C4.44212 18.7574 3.80864 18.3273 3.2612 17.7798C2.71376 17.2324 2.28362 16.5989 1.9708 15.8794C1.65797 15.1443 1.50156 14.3622 1.50156 13.5332V7.52697ZM6.75702 4.52386V7.52697H8.25858V4.52386H6.75702ZM6.75702 9.02853V14.7298L5.0443 12.9936L3.96506 14.0728L6.96818 17.076H8.04742L11.0505 14.0728L9.9713 12.9936L8.25858 14.7298V9.02853H6.75702Z" fill="#00CCAB"/>
</svg>
