<svg width="19" height="19" viewBox="0 0 19 19" fill="none" xmlns="http://www.w3.org/2000/svg">
<path d="M9.67937 2.15923C10.8837 2.15923 11.6736 2.16314 12.049 2.17096C12.4244 2.17878 12.8467 2.19051 13.316 2.20615C13.7539 2.23744 14.1019 2.28436 14.36 2.34693C14.6181 2.40949 14.8253 2.47206 14.9818 2.53462C15.2007 2.61283 15.3923 2.70276 15.5566 2.80443C15.7208 2.9061 15.8811 3.03514 16.0375 3.19155C16.194 3.34797 16.323 3.50829 16.4247 3.67252C16.5263 3.83675 16.6163 4.02836 16.6945 4.24734C16.757 4.40375 16.8196 4.611 16.8822 4.86908C16.9447 5.12716 16.9917 5.47518 17.0229 5.91313C17.0386 6.38237 17.0503 6.80468 17.0581 7.18007C17.066 7.55546 17.0699 8.34535 17.0699 9.54972C17.0699 10.7541 17.066 11.544 17.0581 11.9194C17.0503 12.2948 17.0386 12.7171 17.0229 13.1863C16.9917 13.6243 16.9447 13.9723 16.8822 14.2304C16.8196 14.4884 16.757 14.6957 16.6945 14.8521C16.6163 15.0711 16.5263 15.2627 16.4247 15.4269C16.323 15.5912 16.194 15.7515 16.0375 15.9079C15.8811 16.0643 15.7208 16.1933 15.5566 16.295C15.3923 16.3967 15.2007 16.4866 14.9818 16.5648C14.8253 16.6274 14.6181 16.69 14.36 16.7525C14.1019 16.8151 13.7539 16.862 13.316 16.8933C12.8467 16.9089 12.4244 16.9207 12.049 16.9285C11.6736 16.9363 10.8837 16.9402 9.67937 16.9402C8.475 16.9402 7.68511 16.9363 7.30972 16.9285C6.93433 16.9207 6.51202 16.9089 6.04278 16.8933C5.60483 16.862 5.25681 16.8151 4.99873 16.7525C4.74065 16.69 4.5334 16.6274 4.37699 16.5648C4.15801 16.4866 3.96641 16.3967 3.80217 16.295C3.63794 16.1933 3.47762 16.0643 3.32121 15.9079C3.16479 15.7515 3.03575 15.5912 2.93408 15.4269C2.83242 15.2627 2.74248 15.0711 2.66427 14.8521C2.60171 14.6957 2.53914 14.4884 2.47658 14.2304C2.41401 13.9723 2.36709 13.6243 2.33581 13.1863C2.32017 12.7171 2.30843 12.2948 2.30061 11.9194C2.29279 11.544 2.28888 10.7541 2.28888 9.54972C2.28888 8.34535 2.29279 7.55546 2.30061 7.18007C2.30843 6.80468 2.32017 6.38237 2.33581 5.91313C2.36709 5.47518 2.41401 5.12716 2.47658 4.86908C2.53914 4.611 2.60171 4.40375 2.66427 4.24734C2.74248 4.02836 2.83242 3.83675 2.93408 3.67252C3.03575 3.50829 3.16479 3.34797 3.32121 3.19155C3.47762 3.03514 3.63794 2.9061 3.80217 2.80443C3.96641 2.70276 4.15801 2.61283 4.37699 2.53462C4.5334 2.47206 4.74065 2.40949 4.99873 2.34693C5.25681 2.28436 5.60483 2.23744 6.04278 2.20615C6.51202 2.19051 6.93433 2.17878 7.30972 2.17096C7.68511 2.16314 8.475 2.15923 9.67937 2.15923ZM9.67937 0.540361C8.45936 0.540361 7.65383 0.544271 7.2628 0.552092C6.87177 0.559912 6.44164 0.571644 5.9724 0.587284C5.48752 0.618567 5.07303 0.669401 4.72892 0.739786C4.38481 0.810173 4.06416 0.90011 3.76698 1.0096C3.48544 1.13473 3.21172 1.2755 2.94582 1.43191C2.67991 1.58833 2.42183 1.79166 2.17157 2.04192C1.92131 2.29218 1.71798 2.55026 1.56156 2.81616C1.40515 3.08206 1.26438 3.35579 1.13925 3.63733C1.02976 3.93451 0.939825 4.25516 0.869439 4.59927C0.799054 4.94337 0.74822 5.35787 0.716937 5.84274C0.701296 6.31198 0.689565 6.74212 0.681744 7.13315C0.673924 7.52418 0.670013 8.3297 0.670013 9.54972C0.670013 10.7697 0.673924 11.5753 0.681744 11.9663C0.689565 12.3573 0.701296 12.7875 0.716937 13.2567C0.74822 13.7416 0.799054 14.1561 0.869439 14.5002C0.939825 14.8443 1.02976 15.1649 1.13925 15.4621C1.26438 15.7437 1.40515 16.0174 1.56156 16.2833C1.71798 16.5492 1.92131 16.8073 2.17157 17.0575C2.42183 17.3078 2.67991 17.5111 2.94582 17.6675C3.21172 17.8239 3.48544 17.9647 3.76698 18.0898C4.06416 18.1993 4.38481 18.2893 4.72892 18.3597C5.07303 18.43 5.48752 18.4809 5.9724 18.5122C6.44164 18.5278 6.87177 18.5395 7.2628 18.5474C7.65383 18.5552 8.45936 18.5591 9.67937 18.5591C10.8994 18.5591 11.7049 18.5552 12.0959 18.5474C12.487 18.5395 12.9171 18.5278 13.3864 18.5122C13.8712 18.4809 14.2857 18.43 14.6298 18.3597C14.9739 18.2893 15.2946 18.1993 15.5918 18.0898C15.8733 17.9647 16.147 17.8239 16.4129 17.6675C16.6788 17.5111 16.9369 17.3078 17.1872 17.0575C17.4374 16.8073 17.6408 16.5492 17.7972 16.2833C17.9536 16.0174 18.0944 15.7437 18.2195 15.4621C18.329 15.1649 18.4189 14.8443 18.4893 14.5002C18.5597 14.1561 18.6105 13.7416 18.6418 13.2567C18.6575 12.7875 18.6692 12.3573 18.677 11.9663C18.6848 11.5753 18.6887 10.7697 18.6887 9.54972C18.6887 8.3297 18.6848 7.52418 18.677 7.13315C18.6692 6.74212 18.6575 6.31198 18.6418 5.84274C18.6105 5.35787 18.5597 4.94337 18.4893 4.59927C18.4189 4.25516 18.329 3.93451 18.2195 3.63733C18.0944 3.35579 17.9536 3.08206 17.7972 2.81616C17.6408 2.55026 17.4374 2.29218 17.1872 2.04192C16.9369 1.79166 16.6788 1.58833 16.4129 1.43191C16.147 1.2755 15.8733 1.13473 15.5918 1.0096C15.2946 0.90011 14.9739 0.810173 14.6298 0.739786C14.2857 0.669401 13.8712 0.618567 13.3864 0.587284C12.9171 0.571644 12.487 0.559912 12.0959 0.552092C11.7049 0.544271 10.8994 0.540361 9.67937 0.540361ZM9.70284 4.92773C9.06154 4.92773 8.45936 5.05286 7.89627 5.30312C7.33319 5.53774 6.84049 5.86621 6.41817 6.28852C5.99586 6.71083 5.66739 7.20353 5.43277 7.76662C5.18251 8.3297 5.05738 8.93189 5.05738 9.57318C5.05738 10.2145 5.18251 10.8167 5.43277 11.3797C5.66739 11.9428 5.99586 12.4316 6.41817 12.8461C6.84049 13.2606 7.33319 13.593 7.89627 13.8432C8.45936 14.0779 9.06154 14.1952 9.70284 14.1952C10.3441 14.1952 10.9463 14.0779 11.5094 13.8432C12.0725 13.593 12.5613 13.2606 12.9758 12.8461C13.3903 12.4316 13.7226 11.9428 13.9729 11.3797C14.2075 10.8167 14.3248 10.2145 14.3248 9.57318C14.3248 8.93189 14.2075 8.3297 13.9729 7.76662C13.7226 7.20353 13.3903 6.71083 12.9758 6.28852C12.5613 5.86621 12.0725 5.53774 11.5094 5.30312C10.9463 5.05286 10.3441 4.92773 9.70284 4.92773ZM9.70284 12.5763C8.87385 12.5763 8.16608 12.283 7.57954 11.6965C6.99299 11.1099 6.69972 10.4022 6.69972 9.57318C6.69972 8.7442 6.99299 8.03643 7.57954 7.44988C8.16608 6.86334 8.87385 6.57006 9.70284 6.57006C10.5318 6.57006 11.2396 6.86334 11.8261 7.44988C12.4127 8.03643 12.706 8.7442 12.706 9.57318C12.706 10.4022 12.4127 11.1099 11.8261 11.6965C11.2396 12.283 10.5318 12.5763 9.70284 12.5763ZM15.5448 4.71657C15.5448 5.01376 15.4393 5.26793 15.2281 5.47909C15.017 5.69024 14.7628 5.79582 14.4656 5.79582C14.1684 5.79582 13.9142 5.69024 13.7031 5.47909C13.4919 5.26793 13.3864 5.01376 13.3864 4.71657C13.3864 4.41939 13.4919 4.16913 13.7031 3.96579C13.9142 3.76246 14.1684 3.66079 14.4656 3.66079C14.7628 3.66079 15.017 3.76246 15.2281 3.96579C15.4393 4.16913 15.5448 4.41939 15.5448 4.71657Z" fill="white"/>
</svg>
