<svg width="17" height="16" viewBox="0 0 17 16" fill="none" xmlns="http://www.w3.org/2000/svg">
<path d="M1.06883 15.9639H4.1658V5.14794H1.06883V15.9639ZM2.54693 3.78715H2.52347C1.96039 3.78715 1.5107 3.60728 1.17441 3.24753C0.838126 2.88778 0.669983 2.44201 0.669983 1.9102C0.669983 1.3784 0.842037 0.932625 1.18614 0.572876C1.53025 0.213127 1.99167 0.0332527 2.57039 0.0332527C3.13348 0.0332527 3.58317 0.213127 3.91945 0.572876C4.25574 0.932625 4.42388 1.3784 4.42388 1.9102C4.42388 2.44201 4.25574 2.88778 3.91945 3.24753C3.58317 3.60728 3.12566 3.78715 2.54693 3.78715ZM16.6006 15.9639H13.0813V10.3799C13.0813 9.6448 12.9366 9.05043 12.6473 8.59684C12.3579 8.14324 11.9082 7.91644 11.2982 7.91644C10.8446 7.91644 10.4849 8.0533 10.219 8.32703C9.95306 8.60075 9.75755 8.90184 9.63242 9.23031C9.5855 9.3398 9.56203 9.47275 9.56203 9.62916C9.56203 9.78557 9.56203 9.94981 9.56203 10.1219V15.9639H6.06621C6.06621 15.9639 6.06621 15.4477 6.06621 14.4154C6.06621 13.3674 6.07012 12.1943 6.07795 10.8961C6.08577 9.59788 6.08968 8.37004 6.08968 7.21259C6.08968 6.05513 6.08186 5.36692 6.06621 5.14794H9.56203V6.8372C9.65588 6.47745 9.97262 6.09033 10.5122 5.67583C11.0519 5.26134 11.7675 5.05409 12.659 5.05409C13.7539 5.05409 14.6845 5.45295 15.451 6.25065C16.2174 7.04835 16.6006 8.28401 16.6006 9.95763V15.9639Z" fill="white"/>
</svg>
