<svg width="10" height="13" viewBox="0 0 10 13" fill="none" xmlns="http://www.w3.org/2000/svg">
<path d="M0.875 5.08008C0.875 4.5332 0.979818 4.02279 1.18945 3.54883C1.38997 3.06575 1.66797 2.64648 2.02344 2.29102C2.37891 1.93555 2.79818 1.65755 3.28125 1.45703C3.75521 1.2474 4.26562 1.14258 4.8125 1.14258C5.35938 1.14258 5.86979 1.2474 6.34375 1.45703C6.82682 1.65755 7.24609 1.93555 7.60156 2.29102C7.95703 2.64648 8.23503 3.06575 8.43555 3.54883C8.64518 4.02279 8.75 4.5332 8.75 5.08008C8.75 5.49023 8.71354 5.84798 8.64062 6.15332C8.56771 6.45866 8.46289 6.74805 8.32617 7.02148C8.18945 7.29492 8.02083 7.56608 7.82031 7.83496C7.61979 8.10384 7.37826 8.4069 7.0957 8.74414L4.8125 11.6016L2.5293 8.74414C2.24674 8.4069 2.00521 8.10612 1.80469 7.8418C1.60417 7.57747 1.43555 7.31315 1.29883 7.04883C1.16211 6.78451 1.05729 6.4974 0.984375 6.1875C0.911458 5.8776 0.875 5.50846 0.875 5.08008ZM4.8125 0.267578C4.14714 0.267578 3.52279 0.395183 2.93945 0.650391C2.35612 0.896484 1.8457 1.23828 1.4082 1.67578C0.970703 2.11328 0.628906 2.6237 0.382812 3.20703C0.127604 3.79036 0 4.41471 0 5.08008C0 5.57227 0.0432943 6.00749 0.129883 6.38574C0.216471 6.764 0.341797 7.11719 0.505859 7.44531C0.669922 7.76432 0.865885 8.06966 1.09375 8.36133C1.32161 8.65299 1.56771 8.95833 1.83203 9.27734L1.8457 9.29102L4.4707 12.5723H5.1543L7.7793 9.29102C8.05273 8.97201 8.30339 8.65983 8.53125 8.35449C8.75911 8.04915 8.95508 7.73242 9.11914 7.4043C9.2832 7.07617 9.40853 6.72298 9.49512 6.34473C9.58171 5.96647 9.625 5.54492 9.625 5.08008C9.625 4.41471 9.4974 3.79036 9.24219 3.20703C8.99609 2.6237 8.6543 2.11328 8.2168 1.67578C7.7793 1.23828 7.26888 0.896484 6.68555 0.650391C6.10221 0.395183 5.47786 0.267578 4.8125 0.267578ZM3.5 5.08008C3.5 4.71549 3.6276 4.4056 3.88281 4.15039C4.13802 3.89518 4.44792 3.76758 4.8125 3.76758C5.17708 3.76758 5.48698 3.89518 5.74219 4.15039C5.9974 4.4056 6.125 4.71549 6.125 5.08008C6.125 5.44466 5.9974 5.75456 5.74219 6.00977C5.48698 6.26497 5.17708 6.39258 4.8125 6.39258C4.44792 6.39258 4.13802 6.26497 3.88281 6.00977C3.6276 5.75456 3.5 5.44466 3.5 5.08008ZM4.8125 2.89258C4.21094 2.89258 3.69596 3.10677 3.26758 3.53516C2.83919 3.96354 2.625 4.47852 2.625 5.08008C2.625 5.68164 2.83919 6.19661 3.26758 6.625C3.69596 7.05339 4.21094 7.26758 4.8125 7.26758C5.41406 7.26758 5.92904 7.05339 6.35742 6.625C6.78581 6.19661 7 5.68164 7 5.08008C7 4.47852 6.78581 3.96354 6.35742 3.53516C5.92904 3.10677 5.41406 2.89258 4.8125 2.89258Z" fill="#BCCBD6"/>
</svg>
