<svg width="20" height="17" viewBox="0 0 20 17" fill="none" xmlns="http://www.w3.org/2000/svg">
<path d="M19.9087 8.37675C19.9087 7.78238 19.6976 7.28186 19.2753 6.87519C18.8529 6.46851 18.3524 6.26518 17.7737 6.26518C17.4921 6.26518 17.2223 6.31601 16.9643 6.41768C16.7062 6.51935 16.4833 6.66403 16.2956 6.85172C15.5761 6.36685 14.7393 5.98364 13.7852 5.70209C12.8311 5.42055 11.8066 5.25632 10.7117 5.20939L11.9082 1.47895L15.1225 2.22973V2.27666C15.1225 2.7459 15.2906 3.15257 15.6269 3.49668C15.9632 3.84078 16.3738 4.01284 16.8587 4.01284C17.3436 4.01284 17.7541 3.84078 18.0904 3.49668C18.4267 3.15257 18.5949 2.7459 18.5949 2.27666C18.5949 1.79178 18.4267 1.3812 18.0904 1.04491C17.7541 0.708623 17.3436 0.54048 16.8587 0.54048C16.4833 0.54048 16.1509 0.642148 15.8615 0.845484C15.5722 1.04882 15.3649 1.31472 15.2398 1.64319L11.7675 0.822022C11.6892 0.806381 11.6189 0.818112 11.5563 0.857215C11.4937 0.896318 11.4468 0.954973 11.4155 1.03318L10.1017 5.20939C8.95985 5.22503 7.88842 5.37363 6.88738 5.65517C5.88634 5.93671 5.00261 6.32774 4.23619 6.82826C4.04849 6.65621 3.83343 6.51544 3.59099 6.40595C3.34855 6.29646 3.08656 6.24172 2.80501 6.24172C2.22629 6.24172 1.72577 6.44896 1.30345 6.86346C0.88114 7.27795 0.669983 7.78238 0.669983 8.37675C0.669983 8.76778 0.767741 9.12362 0.963256 9.44426C1.15877 9.76491 1.41294 10.0113 1.72577 10.1833C1.71013 10.3084 1.69448 10.4258 1.67884 10.5352C1.6632 10.6447 1.65538 10.762 1.65538 10.8872C1.65538 11.6692 1.88218 12.4044 2.33578 13.0926C2.78937 13.7808 3.40329 14.383 4.17753 14.8991C4.95178 15.4153 5.86288 15.822 6.91084 16.1192C7.95881 16.4163 9.06933 16.5649 10.2424 16.5649C11.4312 16.5649 12.5495 16.4163 13.5975 16.1192C14.6298 15.822 15.537 15.4153 16.3191 14.8991C17.1011 14.383 17.7111 13.7808 18.1491 13.0926C18.6027 12.4044 18.8295 11.6692 18.8295 10.8872C18.8295 10.7777 18.8256 10.6682 18.8177 10.5587C18.8099 10.4492 18.7982 10.3397 18.7826 10.2302C19.111 10.0425 19.3808 9.78837 19.592 9.46772C19.8031 9.14708 19.9087 8.78342 19.9087 8.37675ZM6.11314 9.83138C6.11314 9.48728 6.23436 9.19009 6.4768 8.93983C6.71924 8.68957 7.02033 8.56444 7.38008 8.56444C7.72419 8.56444 8.02137 8.68957 8.27163 8.93983C8.52189 9.19009 8.64702 9.48728 8.64702 9.83138C8.64702 10.1755 8.52189 10.4727 8.27163 10.7229C8.02137 10.9732 7.72419 11.0983 7.38008 11.0983C7.02033 11.0983 6.71924 10.9732 6.4768 10.7229C6.23436 10.4727 6.11314 10.1755 6.11314 9.83138ZM13.3629 13.5618C13.05 13.8746 12.6395 14.1093 12.1311 14.2657C11.6228 14.4221 11.0088 14.5003 10.2894 14.5003C9.56985 14.5003 8.95594 14.4221 8.44759 14.2657C7.93925 14.1093 7.52867 13.8746 7.21585 13.5618C7.15328 13.4993 7.122 13.4289 7.122 13.3507C7.122 13.2725 7.15328 13.2021 7.21585 13.1395C7.27841 13.0926 7.3488 13.0691 7.427 13.0691C7.50521 13.0691 7.5756 13.0926 7.63816 13.1395C7.90406 13.4054 8.25208 13.6009 8.68221 13.7261C9.11235 13.8512 9.64806 13.9137 10.2894 13.9137C10.9306 13.9137 11.4664 13.8512 11.8965 13.7261C12.3266 13.6009 12.6746 13.4054 12.9405 13.1395C13.0031 13.0926 13.0735 13.0691 13.1517 13.0691C13.2299 13.0691 13.3003 13.0926 13.3629 13.1395C13.4254 13.2021 13.4567 13.2725 13.4567 13.3507C13.4567 13.4289 13.4254 13.4993 13.3629 13.5618ZM13.2221 11.0983C12.8623 11.0983 12.5612 10.9732 12.3188 10.7229C12.0764 10.4727 11.9551 10.1755 11.9551 9.83138C11.9551 9.48728 12.0764 9.19009 12.3188 8.93983C12.5612 8.68957 12.8623 8.56444 13.2221 8.56444C13.5662 8.56444 13.8595 8.68957 14.1019 8.93983C14.3443 9.19009 14.4656 9.48728 14.4656 9.83138C14.4656 10.1755 14.3443 10.4727 14.1019 10.7229C13.8595 10.9732 13.5662 11.0983 13.2221 11.0983Z" fill="white"/>
</svg>
