<svg width="18" height="16" viewBox="0 0 18 16" fill="none" xmlns="http://www.w3.org/2000/svg">
<path d="M1.84707 7.0336C2.98888 6.53308 4.03685 6.07948 4.99096 5.67281C5.94508 5.2505 6.80144 4.87511 7.56004 4.54664C8.31864 4.21817 8.97948 3.93663 9.54257 3.70201C10.1213 3.45175 10.5984 3.24842 10.9737 3.092C13.1479 2.18481 14.5947 1.60217 15.3142 1.34409C16.0337 1.08601 16.542 0.956973 16.8392 0.956973C16.9018 0.956973 16.9917 0.968704 17.109 0.992167C17.2263 1.01563 17.3319 1.06646 17.4258 1.14467C17.504 1.20723 17.5587 1.27762 17.59 1.35583C17.6213 1.43403 17.6447 1.50442 17.6604 1.56698C17.676 1.62955 17.6877 1.71948 17.6956 1.83679C17.7034 1.9541 17.6995 2.0675 17.6838 2.17699C17.6213 2.80264 17.5196 3.60816 17.3788 4.59356C17.2381 5.57896 17.0816 6.6152 16.9096 7.70226C16.7375 8.78933 16.5577 9.8412 16.37 10.8579C16.1979 11.8902 16.0415 12.7505 15.9007 13.4387C15.7912 14.0331 15.6387 14.4476 15.4432 14.6822C15.2477 14.9168 15.0483 15.0419 14.845 15.0576C14.3914 15.0888 13.973 14.9715 13.5897 14.7056C13.2065 14.4397 12.7959 14.166 12.358 13.8845C11.6698 13.4309 11.0832 13.0359 10.5984 12.6996C10.1135 12.3634 9.53475 11.9684 8.86217 11.5148C8.08011 11.0143 7.82985 10.5881 8.11139 10.2361C8.39293 9.88422 8.75268 9.48145 9.19064 9.02786C9.2532 8.96529 9.51128 8.73067 9.96488 8.324C10.4028 7.90169 10.8838 7.44418 11.4078 6.95148C11.9318 6.45878 12.4049 6.00128 12.8272 5.57896C13.2652 5.15665 13.492 4.89857 13.5076 4.80472C13.5233 4.78908 13.5272 4.74998 13.5194 4.68741C13.5115 4.62485 13.4842 4.57792 13.4372 4.54664C13.3903 4.49972 13.3356 4.47625 13.273 4.47625C13.2104 4.47625 13.1557 4.48407 13.1088 4.49972C13.0775 4.51536 12.9133 4.61703 12.6161 4.80472C12.3345 4.97677 11.9161 5.24659 11.3609 5.61415C10.8056 5.98172 10.1291 6.43923 9.33141 6.98668C8.51806 7.51848 7.57959 8.14413 6.51598 8.86363C6.20316 9.0826 5.90206 9.24293 5.6127 9.34459C5.32334 9.44626 5.05353 9.4971 4.80327 9.4971C4.52172 9.4971 4.14633 9.43453 3.6771 9.3094C3.20786 9.18427 2.7699 9.05914 2.36323 8.93401C1.87835 8.76196 1.46777 8.61336 1.13148 8.48823C0.795196 8.3631 0.642694 8.16759 0.673976 7.90169C0.689618 7.76092 0.795196 7.61624 0.990712 7.46764C1.18623 7.31905 1.47168 7.17437 1.84707 7.0336Z" fill="white"/>
</svg>
