<svg width="18" height="15" viewBox="0 0 18 15" fill="none" xmlns="http://www.w3.org/2000/svg">
<path d="M15.6856 2.69328C16.0453 2.4743 16.3582 2.18885 16.6241 1.83692C16.89 1.48499 17.0855 1.09005 17.2106 0.652099C16.8665 0.871076 16.5107 1.05486 16.1431 1.20345C15.7755 1.35204 15.3884 1.47326 14.9817 1.56711C14.6689 1.20736 14.2935 0.921909 13.8556 0.710752C13.4176 0.499596 12.9484 0.394017 12.4478 0.394017C11.4781 0.394017 10.653 0.753766 9.97262 1.47326C9.29222 2.19276 8.95203 3.06085 8.95203 4.07753C8.95203 4.2183 8.95985 4.35907 8.97549 4.49985C8.99113 4.64062 9.01459 4.78139 9.04587 4.92216C8.32638 4.87524 7.62252 4.75793 6.9343 4.57023C6.26173 4.3669 5.62044 4.10099 5.01043 3.77253C4.40042 3.44406 3.82952 3.04521 3.29771 2.57597C2.76591 2.12238 2.28103 1.62186 1.84308 1.07441C1.70231 1.34031 1.58891 1.62968 1.50288 1.9425C1.41685 2.25533 1.37384 2.58379 1.37384 2.9279C1.37384 3.55355 1.51461 4.13619 1.79615 4.67581C2.0777 5.21543 2.45309 5.64948 2.92232 5.97794C2.64078 5.97794 2.36706 5.93493 2.10116 5.8489C1.83526 5.76288 1.585 5.6573 1.35038 5.53217V5.57909C1.35038 6.47064 1.61628 7.25271 2.14808 7.92528C2.67988 8.59785 3.34464 9.01235 4.14234 9.16876C4.00157 9.21568 3.85298 9.25088 3.69656 9.27434C3.54015 9.2978 3.38374 9.30953 3.22733 9.30953C3.11784 9.30953 3.00835 9.30562 2.89886 9.2978C2.78937 9.28998 2.67988 9.27043 2.57039 9.23914C2.78937 9.97428 3.19604 10.5804 3.79041 11.0574C4.38478 11.5345 5.06517 11.7808 5.8316 11.7965C5.23723 12.297 4.56856 12.6841 3.82561 12.9579C3.08265 13.2316 2.30449 13.3684 1.49115 13.3684C1.35038 13.3684 1.20961 13.3645 1.06883 13.3567C0.928064 13.3489 0.795113 13.3372 0.669983 13.3215C1.4364 13.8533 2.27321 14.2639 3.1804 14.5533C4.0876 14.8426 5.03389 14.9873 6.01929 14.9873C7.6147 14.9873 9.03023 14.6667 10.2659 14.0254C11.5015 13.3841 12.5417 12.5629 13.3863 11.5619C14.2309 10.5608 14.8644 9.43466 15.2867 8.18336C15.7247 6.9477 15.9437 5.71986 15.9437 4.49985C15.9437 4.42164 15.9437 4.34343 15.9437 4.26523C15.9437 4.18702 15.9437 4.10881 15.9437 4.03061C16.2878 3.76471 16.6045 3.47143 16.8939 3.15079C17.1832 2.83014 17.4452 2.48995 17.6798 2.1302C17.367 2.27097 17.0425 2.38828 16.7062 2.48212C16.3699 2.57597 16.0297 2.64636 15.6856 2.69328Z" fill="white"/>
</svg>
