<svg width="97" height="97" viewBox="0 0 97 97" fill="none" xmlns="http://www.w3.org/2000/svg">
<path d="M48.66 80.5498C66.6092 80.5498 81.16 65.9991 81.16 48.0498C81.16 30.1005 66.6092 15.5498 48.66 15.5498C30.7107 15.5498 16.16 30.1005 16.16 48.0498C16.16 65.9991 30.7107 80.5498 48.66 80.5498Z" stroke="#415566" stroke-dasharray="2 2"/>
<path d="M56.6585 70.1468C68.8623 65.7293 75.1743 52.2551 70.7569 40.0513C66.3394 27.8476 52.8653 21.5355 40.6615 25.9529C28.4577 30.3704 22.1456 43.8445 26.563 56.0483C30.9805 68.2521 44.4547 74.5642 56.6585 70.1468Z" stroke="#1B2B38"/>
<path d="M72.3347 72.5604C74.4624 71.2838 73.6113 69.5817 71.0581 70.0072C68.5049 70.4327 59.1432 72.1349 59.1432 72.1349C59.1432 72.1349 59.1432 70.0072 57.0156 69.5817C56.0225 69.3831 45.5262 69.1561 45.5262 69.1561C42.3931 66.8775 39.5687 66.603 37.0156 66.603C34.4624 66.603 32.16 67.5498 32.16 67.5498V63.5498H21.16V80.5498H32.16V77.5498L34.4624 76.8157C34.4624 76.8157 43.1332 82.8645 49.356 84.0498C58.7177 82.3476 72.3347 72.5604 72.3347 72.5604Z" fill="#111B24" stroke="white" stroke-linejoin="bevel"/>
<path d="M59.1432 72.1348C59.1432 74.2624 55.739 74.688 55.739 74.688L45.1007 75.1135" stroke="white" stroke-linejoin="bevel"/>
<path d="M32.16 77.5498V67.5498" stroke="white" stroke-linejoin="bevel"/>
<path d="M26.66 77.5498C27.4884 77.5498 28.16 76.8782 28.16 76.0498C28.16 75.2214 27.4884 74.5498 26.66 74.5498C25.8315 74.5498 25.16 75.2214 25.16 76.0498C25.16 76.8782 25.8315 77.5498 26.66 77.5498Z" stroke="white" stroke-linejoin="bevel"/>
<path d="M48.66 61.0498C61.3625 61.0498 71.66 50.7524 71.66 38.0498C71.66 25.3473 61.3625 15.0498 48.66 15.0498C35.9574 15.0498 25.66 25.3473 25.66 38.0498C25.66 50.7524 35.9574 61.0498 48.66 61.0498Z" fill="#111B24"/>
<path d="M48.66 61.0498C61.3625 61.0498 71.66 50.7524 71.66 38.0498C71.66 25.3473 61.3625 15.0498 48.66 15.0498C35.9574 15.0498 25.66 25.3473 25.66 38.0498C25.66 50.7524 35.9574 61.0498 48.66 61.0498Z" fill="#00EAC7" fill-opacity="0.06"/>
<path d="M48.66 61.0498C61.3625 61.0498 71.66 50.7524 71.66 38.0498C71.66 25.3473 61.3625 15.0498 48.66 15.0498C35.9574 15.0498 25.66 25.3473 25.66 38.0498C25.66 50.7524 35.9574 61.0498 48.66 61.0498Z" stroke="#00EAC7" stroke-width="2.1" stroke-linejoin="bevel"/>
<path d="M48.66 57.5498C59.4295 57.5498 68.16 48.8194 68.16 38.0498C68.16 27.2803 59.4295 18.5498 48.66 18.5498C37.8904 18.5498 29.16 27.2803 29.16 38.0498C29.16 48.8194 37.8904 57.5498 48.66 57.5498Z" stroke="#00EAC7" stroke-linejoin="bevel"/>
<mask id="mask0_0_1518" style="mask-type:luminance" maskUnits="userSpaceOnUse" x="34" y="23" width="29" height="27">
<path d="M62.61 23.0498H34.61V49.0498H62.61V23.0498Z" fill="white"/>
<path d="M56.4564 37.8362H60.45C60.4973 37.8363 60.5442 37.8271 60.5879 37.809C60.6316 37.791 60.6714 37.7644 60.7048 37.731C60.7383 37.6975 60.7648 37.6578 60.7828 37.6141C60.8009 37.5704 60.8101 37.5235 60.81 37.4762V34.5962C60.81 34.5007 60.7721 34.4092 60.7046 34.3416C60.6371 34.2741 60.5455 34.2362 60.45 34.2362H54.854L50.4452 24.3346C50.4077 24.2503 50.3467 24.1787 50.2695 24.1281C50.1923 24.0776 50.1023 24.0504 50.01 24.0498H46.41C46.3172 24.0498 46.2264 24.0767 46.1486 24.1273C46.0708 24.1778 46.0093 24.2498 45.9716 24.3346L41.566 34.2362H35.97C35.8745 34.2362 35.783 34.2741 35.7155 34.3416C35.6479 34.4092 35.61 34.5007 35.61 34.5962V37.4762C35.6099 37.5235 35.6191 37.5704 35.6372 37.6141C35.6553 37.6578 35.6818 37.6975 35.7152 37.731C35.7487 37.7644 35.7884 37.791 35.8321 37.809C35.8758 37.8271 35.9227 37.8363 35.97 37.8362H39.9636L35.6436 47.5434C35.6193 47.5981 35.6089 47.658 35.6136 47.7176C35.6182 47.7773 35.6376 47.8349 35.6701 47.8852C35.7026 47.9355 35.7471 47.9768 35.7996 48.0056C35.8521 48.0343 35.911 48.0495 35.9708 48.0498H39.1844C39.2772 48.0498 39.368 48.0229 39.4458 47.9723C39.5236 47.9218 39.5851 47.8498 39.6228 47.765L48.21 28.4778L56.7972 47.765C56.8349 47.8498 56.8964 47.9218 56.9742 47.9723C57.052 48.0229 57.1428 48.0498 57.2356 48.0498H60.4492C60.5093 48.0499 60.5684 48.035 60.6212 48.0064C60.674 47.9779 60.7189 47.9365 60.7516 47.8862C60.7844 47.8358 60.8041 47.7781 60.8088 47.7182C60.8135 47.6584 60.8032 47.5983 60.7788 47.5434L56.4564 37.8362Z" fill="#00EAC7"/>
</mask>
<g mask="url(#mask0_0_1518)">
<path d="M56.4564 37.8362V36.8362L55.5429 38.243L56.4564 37.8362ZM60.45 37.8362L60.4522 36.8362H60.45V37.8362ZM60.81 37.4762H59.81V37.4784L60.81 37.4762ZM54.854 34.2362L53.9405 34.643L54.854 35.2362V34.2362ZM50.01 24.0498L50.0169 23.0498H50.01V24.0498ZM41.566 34.2362V35.2362L42.4797 34.6427L41.566 34.2362ZM35.61 37.4762L36.61 37.4784V37.4762H35.61ZM35.97 37.8362V36.8362H35.9678L35.97 37.8362ZM39.9636 37.8362L40.8772 38.2428L39.9636 36.8362V37.8362ZM35.9708 48.0498L35.9661 49.0498H35.9708V48.0498ZM48.21 28.4778L49.1236 28.0711H47.2965L48.21 28.4778ZM60.4492 48.0498L60.4512 47.0498H60.4492V48.0498ZM56.4564 38.8362H60.45V36.8362H56.4564V38.8362ZM60.4478 38.8362C60.6268 38.8366 60.8041 38.8016 60.9696 38.7333L60.2062 36.8847C60.2842 36.8525 60.3678 36.836 60.4522 36.8362L60.4478 38.8362ZM60.9696 38.7333C61.135 38.665 61.2853 38.5647 61.4119 38.4381L59.9977 37.0239C60.0574 36.9642 60.1282 36.9169 60.2062 36.8847L60.9696 38.7333ZM61.4119 38.4381C61.5385 38.3115 61.6388 38.1612 61.7071 37.9957L59.8585 37.2324C59.8907 37.1544 59.938 37.0835 59.9977 37.0239L61.4119 38.4381ZM61.7071 37.9957C61.7755 37.8303 61.8104 37.653 61.81 37.474L59.81 37.4784C59.8098 37.3941 59.8263 37.3105 59.8585 37.2324L61.7071 37.9957ZM61.81 37.4762V34.5962H59.81V37.4762H61.81ZM61.81 34.5962C61.81 34.2355 61.6667 33.8896 61.4117 33.6345L59.9975 35.0487C59.8774 34.9287 59.81 34.7659 59.81 34.5962H61.81ZM61.4117 33.6345C61.1566 33.3795 60.8107 33.2362 60.45 33.2362V35.2362C60.2803 35.2362 60.1175 35.1688 59.9975 35.0487L61.4117 33.6345ZM60.45 33.2362H54.854V35.2362H60.45V33.2362ZM55.7675 33.8294L51.3587 23.9278L49.5316 24.7412L53.9405 34.643L55.7675 33.8294ZM51.3587 23.9278C51.243 23.6679 51.0551 23.4471 50.8171 23.2914L49.7219 24.9649C49.6383 24.9102 49.5723 24.8325 49.5316 24.7412L51.3587 23.9278ZM50.8171 23.2914C50.5791 23.1357 50.3013 23.0518 50.0169 23.0498L50.0031 25.0498C49.9032 25.0491 49.8056 25.0196 49.7219 24.9649L50.8171 23.2914ZM50.01 23.0498H46.41V25.0498H50.01V23.0498ZM46.41 23.0498C46.1239 23.0499 45.8438 23.1328 45.6039 23.2887L46.6934 24.9659C46.6091 25.0206 46.5105 25.0498 46.41 25.0498V23.0498ZM45.6039 23.2887C45.364 23.4445 45.1744 23.6666 45.058 23.9279L46.8852 24.7413C46.8443 24.8331 46.7777 24.9111 46.6934 24.9659L45.6039 23.2887ZM45.058 23.9279L40.6524 33.8297L42.4797 34.6427L46.8852 24.7413L45.058 23.9279ZM41.566 33.2362H35.97V35.2362H41.566V33.2362ZM35.97 33.2362C35.6093 33.2362 35.2634 33.3795 35.0083 33.6345L36.4226 35.0487C36.3025 35.1688 36.1398 35.2362 35.97 35.2362V33.2362ZM35.0083 33.6345C34.7533 33.8896 34.61 34.2355 34.61 34.5962H36.61C36.61 34.7659 36.5426 34.9287 36.4226 35.0487L35.0083 33.6345ZM34.61 34.5962V37.4762H36.61V34.5962H34.61ZM34.61 37.474C34.6096 37.653 34.6446 37.8303 34.7129 37.9957L36.5615 37.2324C36.5937 37.3104 36.6102 37.394 36.61 37.4784L34.61 37.474ZM34.7129 37.9957C34.7812 38.1612 34.8815 38.3115 35.0081 38.4381L36.4223 37.0239C36.482 37.0836 36.5293 37.1544 36.5615 37.2324L34.7129 37.9957ZM35.0081 38.4381C35.1347 38.5647 35.285 38.665 35.4505 38.7333L36.2138 36.8847C36.2918 36.9169 36.3626 36.9642 36.4223 37.0239L35.0081 38.4381ZM35.4505 38.7333C35.6159 38.8016 35.7932 38.8366 35.9722 38.8362L35.9678 36.8362C36.0522 36.836 36.1358 36.8525 36.2138 36.8847L35.4505 38.7333ZM35.97 38.8362H39.9636V36.8362H35.97V38.8362ZM39.05 37.4296L34.73 47.1368L36.5572 47.9501L40.8772 38.2428L39.05 37.4296ZM34.73 47.1368C34.6381 47.3434 34.5991 47.5695 34.6166 47.795L36.6106 47.6403C36.6188 47.7464 36.6005 47.8529 36.5572 47.9501L34.73 47.1368ZM34.6166 47.795C34.6341 48.0204 34.7075 48.238 34.8302 48.4279L36.5101 47.3425C36.5678 47.4318 36.6024 47.5342 36.6106 47.6403L34.6166 47.795ZM34.8302 48.4279C34.9529 48.6178 35.121 48.7741 35.3194 48.8827L36.2798 47.1284C36.3732 47.1795 36.4523 47.2531 36.5101 47.3425L34.8302 48.4279ZM35.3194 48.8827C35.5177 48.9913 35.74 49.0487 35.9661 49.0498L35.9755 47.0498C36.0819 47.0503 36.1865 47.0773 36.2798 47.1284L35.3194 48.8827ZM35.9708 49.0498H39.1844V47.0498H35.9708V49.0498ZM39.1844 49.0498C39.4704 49.0497 39.7507 48.9667 39.9906 48.8109L38.901 47.1337C38.9853 47.079 39.0839 47.0498 39.1844 47.0498V49.0498ZM39.9906 48.8109C40.2305 48.6551 40.42 48.433 40.5364 48.1717L38.7093 47.3583C38.7502 47.2665 38.8167 47.1885 38.901 47.1337L39.9906 48.8109ZM40.5364 48.1717L49.1236 28.8845L47.2965 28.0711L38.7093 47.3583L40.5364 48.1717ZM47.2965 28.8845L55.8837 48.1717L57.7108 47.3583L49.1236 28.0711L47.2965 28.8845ZM55.8837 48.1717C56.0001 48.433 56.1896 48.6551 56.4295 48.8109L57.519 47.1337C57.6033 47.1885 57.6699 47.2665 57.7108 47.3583L55.8837 48.1717ZM56.4295 48.8109C56.6694 48.9667 56.9493 49.0497 57.2354 49.0498L57.2359 47.0498C57.3364 47.0498 57.4347 47.079 57.519 47.1337L56.4295 48.8109ZM57.2354 49.0498H60.4492V47.0498H57.2359L57.2354 49.0498ZM60.4472 49.0498C60.6741 49.0502 60.8975 48.9939 61.0971 48.886L60.1454 47.1269C60.2393 47.0761 60.3444 47.0496 60.4512 47.0498L60.4472 49.0498ZM61.0971 48.886C61.2966 48.778 61.466 48.6218 61.5898 48.4317L59.9135 47.3407C59.9718 47.2512 60.0515 47.1777 60.1454 47.1269L61.0971 48.886ZM61.5898 48.4317C61.7135 48.2415 61.7877 48.0234 61.8057 47.7973L59.8119 47.6392C59.8204 47.5328 59.8553 47.4302 59.9135 47.3407L61.5898 48.4317ZM61.8057 47.7973C61.8236 47.5711 61.7847 47.344 61.6924 47.1367L59.8652 47.9501C59.8218 47.8525 59.8035 47.7457 59.8119 47.6392L61.8057 47.7973ZM61.6924 47.1367L57.3699 37.4294L55.5429 38.243L59.8652 47.9501L61.6924 47.1367Z" fill="#00EAC7"/>
</g>
<path d="M13.66 13.5498L18.16 17.0498L22.66 13.5498" stroke="#1B2B38" stroke-linecap="square"/>
<path d="M13.66 16.5498L18.16 20.0498L22.66 16.5498" stroke="#1B2B38" stroke-linecap="square"/>
<path d="M78.66 81.0498C78.66 81.8454 78.9761 82.6085 79.5387 83.1711C80.1013 83.7337 80.8644 84.0498 81.66 84.0498C82.4556 84.0498 83.2187 83.7337 83.7813 83.1711C84.3439 82.6085 84.66 81.8454 84.66 81.0498H81.66H78.66Z" fill="#1B2B38"/>
<path d="M84.66 78.0498C84.66 77.2541 84.3439 76.4911 83.7813 75.9285C83.2187 75.3659 82.4556 75.0498 81.66 75.0498C80.8644 75.0498 80.1013 75.3659 79.5387 75.9285C78.9761 76.4911 78.66 77.2542 78.66 78.0498H81.66H84.66Z" fill="#1B2B38"/>
</svg>
