<svg width="96" height="97" viewBox="0 0 96 97" fill="none" xmlns="http://www.w3.org/2000/svg">
<path d="M48 80.5498C65.9493 80.5498 80.5 65.9991 80.5 48.0498C80.5 30.1005 65.9493 15.5498 48 15.5498C30.0507 15.5498 15.5 30.1005 15.5 48.0498C15.5 65.9991 30.0507 80.5498 48 80.5498Z" stroke="#415566" stroke-dasharray="2 2"/>
<path d="M48 71.5498C60.9787 71.5498 71.5 61.0285 71.5 48.0498C71.5 35.0711 60.9787 24.5498 48 24.5498C35.0213 24.5498 24.5 35.0711 24.5 48.0498C24.5 61.0285 35.0213 71.5498 48 71.5498Z" stroke="#1B2B38"/>
<path d="M21 33.0498H69V39.0498H75V49.0498H79V64.0498H75V75.0498H21V33.0498Z" fill="#111B24"/>
<path d="M21 33.0498H69V39.0498H75V49.0498H79V64.0498H75V75.0498H21V33.0498Z" fill="#00EAC7" fill-opacity="0.06"/>
<path d="M21 33.0498H69V39.0498H75V49.0498H79V64.0498H75V75.0498H21V33.0498Z" stroke="#00EAC7" stroke-width="2" stroke-linejoin="bevel"/>
<path d="M80 49.5498H55.5V63.5498H80" stroke="#00EAC7" stroke-linejoin="bevel"/>
<path d="M69 39.5498H26" stroke="#00EAC7" stroke-linejoin="bevel"/>
<path d="M62.5 59.5498C64.1569 59.5498 65.5 58.2067 65.5 56.5498C65.5 54.893 64.1569 53.5498 62.5 53.5498C60.8431 53.5498 59.5 54.893 59.5 56.5498C59.5 58.2067 60.8431 59.5498 62.5 59.5498Z" stroke="#00EAC7" stroke-linejoin="bevel"/>
<path d="M65.5 39.0498V39.5498H46.5V39.0498C46.5 33.8031 50.7533 29.5498 56 29.5498C61.2467 29.5498 65.5 33.8031 65.5 39.0498Z" fill="#111B24" stroke="white" stroke-linejoin="bevel"/>
<path d="M61.5 39.0498C61.5 36.0122 59.0376 33.5498 56 33.5498C52.9624 33.5498 50.5 36.0122 50.5 39.0498" stroke="white" stroke-linejoin="bevel"/>
<path d="M39.5 26.5498C44.4706 26.5498 48.5 22.5204 48.5 17.5498C48.5 12.5792 44.4706 8.5498 39.5 8.5498C34.5294 8.5498 30.5 12.5792 30.5 17.5498C30.5 22.5204 34.5294 26.5498 39.5 26.5498Z" fill="#111B24" stroke="white" stroke-linejoin="bevel"/>
<path d="M39.5 23.5498C42.8137 23.5498 45.5 20.8635 45.5 17.5498C45.5 14.2361 42.8137 11.5498 39.5 11.5498C36.1863 11.5498 33.5 14.2361 33.5 17.5498C33.5 20.8635 36.1863 23.5498 39.5 23.5498Z" stroke="white" stroke-linejoin="bevel"/>
<path d="M83.5 16.5498V12.5498H79.5" stroke="#1B2B38" stroke-linecap="square"/>
<path d="M81.5 18.5498V14.5498H77.5" stroke="#1B2B38" stroke-linecap="square"/>
<path d="M15 78.0498L18 81.0498L15 84.0498L12 81.0498L15 78.0498Z" fill="#1B2B38"/>
</svg>
