<svg width="21" height="15" viewBox="0 0 21 15" fill="none" xmlns="http://www.w3.org/2000/svg">
<path d="M20.2841 2.23283C20.2215 2.01385 20.1355 1.81052 20.026 1.62282C19.9165 1.43513 19.7836 1.26307 19.6272 1.10666C19.4708 0.950249 19.2987 0.817298 19.111 0.707809C18.9233 0.598321 18.72 0.520115 18.501 0.47319C18.11 0.363702 17.4843 0.277675 16.6241 0.21511C15.7638 0.168186 14.8918 0.129084 14.0081 0.0978003C13.1243 0.0665178 12.354 0.0508766 11.6971 0.0508766C11.0245 0.0508766 10.6882 0.0508766 10.6882 0.0508766C10.6882 0.0508766 10.3519 0.0508766 9.67934 0.0508766C9.02241 0.0508766 8.25208 0.0665178 7.36835 0.0978003C6.48462 0.129084 5.61262 0.168186 4.75235 0.21511C3.89208 0.277675 3.26643 0.363702 2.8754 0.47319C2.65642 0.520115 2.45309 0.598321 2.26539 0.707809C2.0777 0.817298 1.90564 0.950249 1.74923 1.10666C1.59282 1.26307 1.45987 1.43513 1.35038 1.62282C1.24089 1.81052 1.15486 2.01385 1.0923 2.23283C0.88896 3.01489 0.767741 4.01202 0.728638 5.22422C0.689534 6.43642 0.669983 7.04252 0.669983 7.04252C0.669983 7.04252 0.689534 7.65252 0.728638 8.87254C0.767741 10.0926 0.88896 11.0936 1.0923 11.8757C1.15486 12.079 1.24089 12.2784 1.35038 12.4739C1.45987 12.6695 1.59282 12.8454 1.74923 13.0018C1.90564 13.1426 2.0777 13.2716 2.26539 13.389C2.45309 13.5063 2.65642 13.5884 2.8754 13.6353C3.26643 13.7448 3.89208 13.823 4.75235 13.8699C5.61262 13.9325 6.48462 13.9755 7.36835 13.999C8.25208 14.0224 9.02241 14.042 9.67934 14.0576C10.3519 14.0576 10.6882 14.0576 10.6882 14.0576C10.6882 14.0576 11.0245 14.0576 11.6971 14.0576C12.354 14.042 13.1243 14.0224 14.0081 13.999C14.8918 13.9755 15.7638 13.9325 16.6241 13.8699C17.4843 13.823 18.11 13.7448 18.501 13.6353C18.72 13.5884 18.9233 13.5063 19.111 13.389C19.2987 13.2716 19.4708 13.1426 19.6272 13.0018C19.7836 12.8454 19.9165 12.6695 20.026 12.4739C20.1355 12.2784 20.2215 12.079 20.2841 11.8757C20.4874 11.0936 20.6087 10.0926 20.6478 8.87254C20.6869 7.65252 20.7064 7.04252 20.7064 7.04252C20.7064 7.04252 20.6869 6.43642 20.6478 5.22422C20.6087 4.01202 20.4874 3.01489 20.2841 2.23283ZM8.69394 10.0456V4.0394L13.879 7.04252L8.69394 10.0456Z" fill="white"/>
</svg>
